<svg xmlns="http://www.w3.org/2000/svg" viewBox="600 300 250 250" width="250" height="250" preserveAspectRatio="xMidYMid meet">
  <path fill="#ffeed9" d="M 605.347656 452.0625 C 612.765625 453.945312 619.0625 459.371094 622.074219 466.40625 C 625.695312 474.863281 622.617188 484.246094 625.402344 492.824219 C 627.347656 498.828125 633.554688 505.507812 640.460938 502.949219 C 644.015625 501.632812 646.511719 498.355469 648.898438 495.578125 C 651.410156 492.664062 653.855469 489.683594 656.457031 486.847656 C 661.511719 481.339844 667.417969 476.105469 674.90625 474.421875 C 684.253906 472.324219 693.570312 476.210938 702.179688 479.414062 C 709.335938 482.082031 716.972656 484.433594 724.703125 483.496094 C 731.722656 482.648438 737.652344 478.605469 740.4375 472.023438 C 747.378906 455.59375 734.855469 439.351562 732.824219 423.308594 C 731.726562 414.628906 732.914062 405.367188 737.632812 397.859375 C 741.761719 391.292969 748.496094 386.140625 756.253906 384.898438 C 759.679688 384.351562 763.316406 385.019531 766.1875 387.019531 C 768.910156 388.910156 770.664062 392.53125 768.285156 395.453125 C 766.261719 397.941406 762.265625 398.339844 759.492188 396.988281 C 755.96875 395.273438 754.460938 391.054688 754.292969 387.375 C 753.953125 379.835938 758.417969 372.601562 764.585938 368.523438 C 767.800781 366.394531 771.503906 365.082031 775.359375 364.855469 C 780.175781 364.570312 784.910156 365.695312 789.621094 366.507812 C 793.644531 367.203125 797.664062 367.59375 801.730469 367.066406 C 805.125 366.628906 808.425781 365.671875 811.546875 364.273438 C 818.003906 361.382812 823.640625 356.578125 827.398438 350.574219 C 834.96875 338.480469 833.410156 322.375 824.828125 311.207031 C 822.792969 308.554688 820.378906 306.242188 817.652344 304.304688 C 817.144531 303.941406 816.65625 304.785156 817.160156 305.140625 C 829.617188 313.996094 834.925781 331.738281 828.792969 345.851562 C 825.761719 352.828125 820.222656 358.570312 813.566406 362.191406 C 810.210938 364.023438 806.558594 365.304688 802.789062 365.941406 C 798.375 366.679688 794.007812 366.292969 789.625 365.53125 C 785 364.722656 780.34375 363.644531 775.621094 363.875 C 772.097656 364.046875 768.675781 365.046875 765.597656 366.773438 C 759.488281 370.199219 754.792969 376.347656 753.59375 383.300781 C 752.558594 389.320312 754.585938 397.742188 761.738281 398.636719 C 764.347656 398.960938 767.296875 398.191406 769.015625 396.097656 C 770.730469 394 770.777344 391.203125 769.4375 388.988281 C 765.949219 383.238281 757.910156 383.003906 752.246094 384.886719 C 745.234375 387.214844 739.386719 392.539062 735.859375 398.972656 C 731.695312 406.5625 730.792969 415.558594 731.953125 424.035156 C 733.222656 433.328125 737.441406 441.746094 739.882812 450.71875 C 741.972656 458.40625 742.53125 467.371094 738.121094 474.40625 C 733.679688 481.496094 725.347656 483.367188 717.5 482.515625 C 708.65625 481.554688 700.699219 477.445312 692.28125 474.894531 C 684.144531 472.429688 675.703125 471.882812 668.011719 476 C 661.367188 479.554688 656.292969 485.410156 651.476562 491.066406 C 648.910156 494.082031 646.453125 497.40625 643.445312 499.996094 C 639.960938 503 635.636719 503.285156 631.914062 500.542969 C 623.742188 494.523438 625.621094 483.84375 624.992188 475.035156 C 624.441406 467.375 621.0625 460.445312 614.941406 455.699219 C 612.167969 453.546875 609.003906 451.992188 605.601562 451.128906 C 604.996094 450.976562 604.738281 451.910156 605.34375 452.0625 Z M 605.347656 452.0625 " fill-opacity="1" fill-rule="nonzero"/>
</svg>
